<mxfile host="app.diagrams.net" modified="2023-08-16T06:46:07.775Z" agent="Mozilla/5.0 (Windows NT 10.0; Win64; x64) AppleWebKit/537.36 (KHTML, like Gecko) Chrome/115.0.0.0 Safari/537.36" etag="gF76b7qxhfk58T9Np7z3" version="21.6.8" type="github">
  <diagram name="Page-1" id="rLhutt1Bn5XuG1KHNgAZ">
    <mxGraphModel dx="926" dy="423" grid="1" gridSize="10" guides="1" tooltips="1" connect="1" arrows="1" fold="1" page="1" pageScale="1" pageWidth="3840" pageHeight="2400" math="0" shadow="0">
      <root>
        <mxCell id="0" />
        <mxCell id="1" parent="0" />
        <mxCell id="G5LJ6GWsRmSAzuhranLF-1" value="&lt;b&gt;&lt;i&gt;Handler&lt;/i&gt;&lt;/b&gt;" style="swimlane;fontStyle=0;childLayout=stackLayout;horizontal=1;startSize=26;fillColor=none;horizontalStack=0;resizeParent=1;resizeParentMax=0;resizeLast=0;collapsible=1;marginBottom=0;whiteSpace=wrap;html=1;" vertex="1" parent="1">
          <mxGeometry x="500" y="180" width="140" height="190" as="geometry" />
        </mxCell>
        <mxCell id="G5LJ6GWsRmSAzuhranLF-2" value="+ step" style="text;strokeColor=none;fillColor=none;align=left;verticalAlign=top;spacingLeft=4;spacingRight=4;overflow=hidden;rotatable=0;points=[[0,0.5],[1,0.5]];portConstraint=eastwest;whiteSpace=wrap;html=1;" vertex="1" parent="G5LJ6GWsRmSAzuhranLF-1">
          <mxGeometry y="26" width="140" height="26" as="geometry" />
        </mxCell>
        <mxCell id="G5LJ6GWsRmSAzuhranLF-3" value="+ static data" style="text;strokeColor=none;fillColor=none;align=left;verticalAlign=top;spacingLeft=4;spacingRight=4;overflow=hidden;rotatable=0;points=[[0,0.5],[1,0.5]];portConstraint=eastwest;whiteSpace=wrap;html=1;" vertex="1" parent="G5LJ6GWsRmSAzuhranLF-1">
          <mxGeometry y="52" width="140" height="26" as="geometry" />
        </mxCell>
        <mxCell id="G5LJ6GWsRmSAzuhranLF-5" value="" style="line;strokeWidth=1;fillColor=none;align=left;verticalAlign=middle;spacingTop=-1;spacingLeft=3;spacingRight=3;rotatable=0;labelPosition=right;points=[];portConstraint=eastwest;strokeColor=inherit;" vertex="1" parent="G5LJ6GWsRmSAzuhranLF-1">
          <mxGeometry y="78" width="140" height="8" as="geometry" />
        </mxCell>
        <mxCell id="G5LJ6GWsRmSAzuhranLF-4" value="+ add()" style="text;strokeColor=none;fillColor=none;align=left;verticalAlign=top;spacingLeft=4;spacingRight=4;overflow=hidden;rotatable=0;points=[[0,0.5],[1,0.5]];portConstraint=eastwest;whiteSpace=wrap;html=1;" vertex="1" parent="G5LJ6GWsRmSAzuhranLF-1">
          <mxGeometry y="86" width="140" height="26" as="geometry" />
        </mxCell>
        <mxCell id="G5LJ6GWsRmSAzuhranLF-6" value="&lt;i&gt;+ handle()&lt;/i&gt;" style="text;strokeColor=none;fillColor=none;align=left;verticalAlign=top;spacingLeft=4;spacingRight=4;overflow=hidden;rotatable=0;points=[[0,0.5],[1,0.5]];portConstraint=eastwest;whiteSpace=wrap;html=1;" vertex="1" parent="G5LJ6GWsRmSAzuhranLF-1">
          <mxGeometry y="112" width="140" height="26" as="geometry" />
        </mxCell>
        <mxCell id="G5LJ6GWsRmSAzuhranLF-7" value="+ hasNext()" style="text;strokeColor=none;fillColor=none;align=left;verticalAlign=top;spacingLeft=4;spacingRight=4;overflow=hidden;rotatable=0;points=[[0,0.5],[1,0.5]];portConstraint=eastwest;whiteSpace=wrap;html=1;" vertex="1" parent="G5LJ6GWsRmSAzuhranLF-1">
          <mxGeometry y="138" width="140" height="26" as="geometry" />
        </mxCell>
        <mxCell id="G5LJ6GWsRmSAzuhranLF-8" value="+ next()" style="text;strokeColor=none;fillColor=none;align=left;verticalAlign=top;spacingLeft=4;spacingRight=4;overflow=hidden;rotatable=0;points=[[0,0.5],[1,0.5]];portConstraint=eastwest;whiteSpace=wrap;html=1;" vertex="1" parent="G5LJ6GWsRmSAzuhranLF-1">
          <mxGeometry y="164" width="140" height="26" as="geometry" />
        </mxCell>
        <mxCell id="G5LJ6GWsRmSAzuhranLF-9" value="FullStep" style="swimlane;fontStyle=1;align=center;verticalAlign=top;childLayout=stackLayout;horizontal=1;startSize=26;horizontalStack=0;resizeParent=1;resizeParentMax=0;resizeLast=0;collapsible=1;marginBottom=0;whiteSpace=wrap;html=1;" vertex="1" parent="1">
          <mxGeometry x="500" y="420" width="140" height="52" as="geometry" />
        </mxCell>
        <mxCell id="G5LJ6GWsRmSAzuhranLF-13" value="Step1" style="swimlane;fontStyle=1;align=center;verticalAlign=top;childLayout=stackLayout;horizontal=1;startSize=26;horizontalStack=0;resizeParent=1;resizeParentMax=0;resizeLast=0;collapsible=1;marginBottom=0;whiteSpace=wrap;html=1;" vertex="1" parent="1">
          <mxGeometry x="760" y="150" width="160" height="52" as="geometry" />
        </mxCell>
        <mxCell id="G5LJ6GWsRmSAzuhranLF-14" value="" style="endArrow=block;endSize=16;endFill=0;html=1;rounded=0;" edge="1" parent="1" source="G5LJ6GWsRmSAzuhranLF-9" target="G5LJ6GWsRmSAzuhranLF-1">
          <mxGeometry width="160" relative="1" as="geometry">
            <mxPoint x="840" y="330" as="sourcePoint" />
            <mxPoint x="1000" y="330" as="targetPoint" />
          </mxGeometry>
        </mxCell>
        <mxCell id="G5LJ6GWsRmSAzuhranLF-15" value="1" style="endArrow=open;html=1;endSize=12;startArrow=diamondThin;startSize=14;startFill=1;edgeStyle=orthogonalEdgeStyle;align=left;verticalAlign=bottom;rounded=0;" edge="1" parent="1" source="G5LJ6GWsRmSAzuhranLF-9" target="G5LJ6GWsRmSAzuhranLF-13">
          <mxGeometry x="-1" y="3" relative="1" as="geometry">
            <mxPoint x="840" y="330" as="sourcePoint" />
            <mxPoint x="690" y="320" as="targetPoint" />
            <Array as="points">
              <mxPoint x="690" y="440" />
              <mxPoint x="690" y="236" />
            </Array>
          </mxGeometry>
        </mxCell>
        <mxCell id="G5LJ6GWsRmSAzuhranLF-16" value="Step2" style="swimlane;fontStyle=1;align=center;verticalAlign=top;childLayout=stackLayout;horizontal=1;startSize=26;horizontalStack=0;resizeParent=1;resizeParentMax=0;resizeLast=0;collapsible=1;marginBottom=0;whiteSpace=wrap;html=1;" vertex="1" parent="1">
          <mxGeometry x="760" y="310" width="160" height="52" as="geometry" />
        </mxCell>
        <mxCell id="G5LJ6GWsRmSAzuhranLF-17" value="Step3" style="swimlane;fontStyle=1;align=center;verticalAlign=top;childLayout=stackLayout;horizontal=1;startSize=26;horizontalStack=0;resizeParent=1;resizeParentMax=0;resizeLast=0;collapsible=1;marginBottom=0;whiteSpace=wrap;html=1;" vertex="1" parent="1">
          <mxGeometry x="760" y="400" width="160" height="52" as="geometry" />
        </mxCell>
        <mxCell id="G5LJ6GWsRmSAzuhranLF-18" value="1" style="endArrow=open;html=1;endSize=12;startArrow=diamondThin;startSize=14;startFill=1;edgeStyle=orthogonalEdgeStyle;align=left;verticalAlign=bottom;rounded=0;" edge="1" parent="1" source="G5LJ6GWsRmSAzuhranLF-9" target="G5LJ6GWsRmSAzuhranLF-16">
          <mxGeometry x="-1" y="3" relative="1" as="geometry">
            <mxPoint x="640" y="460" as="sourcePoint" />
            <mxPoint x="730" y="330" as="targetPoint" />
            <Array as="points">
              <mxPoint x="700" y="460" />
              <mxPoint x="700" y="330" />
            </Array>
          </mxGeometry>
        </mxCell>
        <mxCell id="G5LJ6GWsRmSAzuhranLF-19" value="1" style="endArrow=open;html=1;endSize=12;startArrow=diamondThin;startSize=14;startFill=1;edgeStyle=orthogonalEdgeStyle;align=left;verticalAlign=bottom;rounded=0;" edge="1" parent="1" source="G5LJ6GWsRmSAzuhranLF-9" target="G5LJ6GWsRmSAzuhranLF-17">
          <mxGeometry x="-1" y="3" relative="1" as="geometry">
            <mxPoint x="660" y="550" as="sourcePoint" />
            <mxPoint x="750" y="430" as="targetPoint" />
            <Array as="points">
              <mxPoint x="570" y="550" />
              <mxPoint x="720" y="550" />
              <mxPoint x="720" y="430" />
            </Array>
          </mxGeometry>
        </mxCell>
        <mxCell id="G5LJ6GWsRmSAzuhranLF-21" value="" style="endArrow=block;endSize=16;endFill=0;html=1;rounded=0;" edge="1" parent="1" source="G5LJ6GWsRmSAzuhranLF-13" target="G5LJ6GWsRmSAzuhranLF-1">
          <mxGeometry width="160" relative="1" as="geometry">
            <mxPoint x="750" y="260" as="sourcePoint" />
            <mxPoint x="850" y="160" as="targetPoint" />
          </mxGeometry>
        </mxCell>
        <mxCell id="G5LJ6GWsRmSAzuhranLF-22" value="" style="endArrow=block;endSize=16;endFill=0;html=1;rounded=0;" edge="1" parent="1" source="G5LJ6GWsRmSAzuhranLF-16" target="G5LJ6GWsRmSAzuhranLF-1">
          <mxGeometry width="160" relative="1" as="geometry">
            <mxPoint x="779" y="212" as="sourcePoint" />
            <mxPoint x="650" y="259" as="targetPoint" />
          </mxGeometry>
        </mxCell>
        <mxCell id="G5LJ6GWsRmSAzuhranLF-24" value="" style="endArrow=block;endSize=16;endFill=0;html=1;rounded=0;" edge="1" parent="1" source="G5LJ6GWsRmSAzuhranLF-17" target="G5LJ6GWsRmSAzuhranLF-1">
          <mxGeometry width="160" relative="1" as="geometry">
            <mxPoint x="793.5099337748343" y="420" as="sourcePoint" />
            <mxPoint x="640" y="334.14814814814815" as="targetPoint" />
          </mxGeometry>
        </mxCell>
      </root>
    </mxGraphModel>
  </diagram>
</mxfile>
